<?xml version="1.0" standalone="no"?>
<!DOCTYPE svg PUBLIC "-//W3C//DTD SVG 20010904//EN"
 "http://www.w3.org/TR/2001/REC-SVG-20010904/DTD/svg10.dtd">
<svg version="1.0" xmlns="http://www.w3.org/2000/svg"
 width="55.000000pt" height="55.000000pt" viewBox="0 0 55.000000 55.000000"
 preserveAspectRatio="xMidYMid meet">

<g transform="translate(0.000000,55.000000) scale(0.100000,-0.100000)"
fill="#000000" stroke="none">
<path d="M225 519 c-23 -17 -63 -33 -95 -39 -84 -15 -94 -33 -87 -150 3 -52
13 -117 23 -145 22 -64 102 -145 166 -170 l48 -18 54 27 c67 33 129 100 151
164 9 26 19 88 22 139 7 111 -5 138 -64 148 -54 9 -93 25 -130 52 -17 12 -35
23 -40 22 -4 0 -26 -14 -48 -30z m183 -69 c30 -5 58 -13 64 -16 15 -10 3 -178
-17 -235 -21 -62 -63 -109 -125 -143 l-52 -28 -56 28 c-62 32 -115 93 -132
152 -14 51 -24 174 -16 205 5 21 15 27 56 36 53 11 124 43 135 60 3 6 24 -3
48 -19 23 -17 66 -34 95 -40z"/>
<path d="M213 394 c-91 -45 -96 -180 -8 -234 85 -52 205 12 205 110 0 104
-104 170 -197 124z m133 -48 c47 -47 47 -95 0 -142 -47 -47 -95 -47 -142 0
-47 47 -47 95 0 142 26 26 42 34 71 34 29 0 45 -8 71 -34z"/>
<path d="M285 290 c-21 -22 -34 -28 -52 -24 -12 4 -23 2 -23 -3 0 -12 33 -43
46 -43 14 0 84 73 84 88 0 21 -25 13 -55 -18z"/>
</g>
</svg>
